<?xml version="1.0" encoding="utf-8"?>
<!-- Generator: Adobe Illustrator 24.3.0, SVG Export Plug-In . SVG Version: 6.00 Build 0)  -->
<svg version="1.1" id="Layer_1" xmlns="http://www.w3.org/2000/svg" xmlns:xlink="http://www.w3.org/1999/xlink" x="0px" y="0px"
	 viewBox="0 0 100 100.2" style="enable-background:new 0 0 100 100.2;" xml:space="preserve">
<style type="text/css">
	.st0{fill:#D5281B;}
</style>
<g>
	<path class="st0" d="M94.3,80.1L54.8,15.6c-2.6-4.3-6.9-4.2-9.6,0.1L5.7,80.1C3,84.4,5,87.7,10,87.7H90C95,87.7,97,84.4,94.3,80.1z
		 M50,29.9c2.5,0,4.5,2.8,4.4,6.2l-0.8,20.6C53.4,60.2,51.8,63,50,63s-3.4-2.8-3.6-6.2l-0.8-20.6C45.5,32.7,47.4,29.9,50,29.9z
		 M50,78.5c-3.2,0-5.4-2.3-5.3-5.5c0-3.3,2.2-5.5,5.3-5.5c3.3,0,5.3,2.3,5.4,5.5C55.4,76.1,53.2,78.5,50,78.5z"/>
</g>
</svg>
