<svg enable-background="new 0 0 147.919 147.919" height="512" viewBox="0 0 147.919 147.919" width="512" xmlns="http://www.w3.org/2000/svg"><path d="m92.779 129.86c-6.431 2.594-13.446 4.038-20.807 4.038-14.974 0-28.517-5.924-38.572-15.492l4.604-2.73c3.234-1.913 3.204-4.962-.066-6.807l-22.458-12.686c-3.27-1.848-5.982-.267-6.059 3.532l-.534 26.412c-.074 3.802 2.481 5.332 5.711 3.415l6.369-3.768c12.777 13.596 30.865 22.145 51 22.145 7.313 0 14.349-1.153 20.961-3.254 14.086-3.755 7.078-17.771-.149-14.805zm-76.371-59.589c3.066-22.703 19.748-41.049 41.547-46.672v-14.445c-27.446 5.571-49.041 27.182-54.628 54.621-4.946 17.563 12.576 14.058 13.081 6.496zm47.736-34.564 22.816-13.662c3.316-1.988 3.323-5.226.014-7.228l-23.024-13.934c-3.311-1.999-5.985-.49-5.966 3.381l.121 28.034c.016 3.87 2.721 5.397 6.039 3.409zm78.934 67.245-11.95-7.074 7.265 4.196c2.345-6.995 3.665-14.459 3.665-22.248 0-21.245-9.465-40.278-24.403-53.129-7.135-6.437-17.647.572-10.916 9.154 12.972 10.271 21.302 26.149 21.302 43.979 0 5.198-.767 10.212-2.088 14.985l-6.167-3.648c-3.213-1.902-5.77-.335-5.715 3.498l.407 26.34c.059 3.84 2.738 5.448 5.982 3.598l22.562-12.857c3.245-1.849 3.269-4.892.056-6.794z" fill="#fff"/></svg>